<svg id="图层_1" data-name="图层 1" xmlns="http://www.w3.org/2000/svg" viewBox="0 0 382.5 382.5"><defs><style>.cls-1{fill:#6c88ea;}</style></defs><title>next talk</title><polygon class="cls-1" points="113.65 196.55 1.86 196.55 72.27 143.5 184.06 143.5 113.65 196.55"/><polygon class="cls-1" points="268.85 196.55 380.64 196.55 310.24 143.5 202.23 143.5 268.85 196.55"/><circle class="cls-1" cx="192.76" cy="173.82" r="13.4"/><path class="cls-1" d="M38.21,266.77,19.84,232.83V266A1.79,1.79,0,0,1,18,267.74h-.86a.9.9,0,0,1-.91-.91V226.61a.9.9,0,0,1,.91-.91h2.11a1.81,1.81,0,0,1,1.6,1l18.37,33.95V227.52a1.8,1.8,0,0,1,1.83-1.83h.86a.9.9,0,0,1,.91.91v40.22a.9.9,0,0,1-.91.91H39.81A1.71,1.71,0,0,1,38.21,266.77Z"/><path class="cls-1" d="M65,258.78V244.41a8.94,8.94,0,0,1,9-9h7.19a9,9,0,0,1,9,9v7.19a1.8,1.8,0,0,1-1.83,1.83H68.56v5.36a5.4,5.4,0,0,0,5.36,5.42h7.19A5.53,5.53,0,0,0,86,261.12a.81.81,0,0,1,.8-.51h1.94a.88.88,0,0,1,.86,1.2A9,9,0,0,1,87,265.57a8.86,8.86,0,0,1-5.88,2.23H73.92A9,9,0,0,1,65,258.78Zm3.59-14.38v5.42h18v-5.42A5.37,5.37,0,0,0,81.11,239H73.92A5.36,5.36,0,0,0,68.56,244.41Z"/><path class="cls-1" d="M133.59,267.06l-9.3-12.44L115,267.06a1.73,1.73,0,0,1-1.43.68H111.8a.89.89,0,0,1-.74-1.43l11-14.72-11-14.72a.89.89,0,0,1,.74-1.43h1.77a1.73,1.73,0,0,1,1.43.68l9.3,12.44,9.3-12.44a1.73,1.73,0,0,1,1.43-.68h1.77a.89.89,0,0,1,.74,1.43l-11,14.72,11,14.72a.89.89,0,0,1-.74,1.43H135A1.73,1.73,0,0,1,133.59,267.06Z"/><path class="cls-1" d="M157.61,258.78V230a.94.94,0,0,1,.91-.91h1.77a.94.94,0,0,1,.91.91v5.42h8.27a1.78,1.78,0,0,1,1.77,1.77v.91a.93.93,0,0,1-.86.91H161.2v19.74a5.36,5.36,0,0,0,5.36,5.36h4.34a1.88,1.88,0,0,1,1.83,1.83v.91a.93.93,0,0,1-.91.86h-5.25A8.94,8.94,0,0,1,157.61,258.78Z"/><path class="cls-1" d="M234.79,229.29H223.33a1.78,1.78,0,0,1-1.77-1.77v-.91a.9.9,0,0,1,.91-.91h28.18a.9.9,0,0,1,.91.91v.91a1.78,1.78,0,0,1-1.77,1.77H238.39v37.54a.94.94,0,0,1-.91.91h-1.83a.89.89,0,0,1-.86-.91Z"/><path class="cls-1" d="M268,258.78v-1.43a8.94,8.94,0,0,1,9-9h12.61v-4a5.37,5.37,0,0,0-5.42-5.36h-9.3a1.8,1.8,0,0,1-1.83-1.83v-.86a.9.9,0,0,1,.91-.91h10.21a9,9,0,0,1,9,9V266a1.8,1.8,0,0,1-1.83,1.83H277A9,9,0,0,1,268,258.78Zm3.59-1.43v1.43A5.4,5.4,0,0,0,277,264.2h12.61V252H277A5.36,5.36,0,0,0,271.59,257.36Z"/><path class="cls-1" d="M315.29,226.61a.9.9,0,0,1,.91-.91h.86a1.8,1.8,0,0,1,1.83,1.83v39.31a.9.9,0,0,1-.91.91H316.2a.9.9,0,0,1-.91-.91Z"/><path class="cls-1" d="M362.12,267.11l-10.84-13.69h-6.68v13.46a.9.9,0,0,1-.91.91h-1.77a.9.9,0,0,1-.91-.91V226.61a.89.89,0,0,1,.91-.86h.86a1.79,1.79,0,0,1,1.83,1.77v22.31h6.45l9.7-13.75a1.86,1.86,0,0,1,1.43-.63h2a.91.91,0,0,1,.74,1.43l-10.44,14.78,11.58,14.66a.91.91,0,0,1-.68,1.48h-1.88A1.88,1.88,0,0,1,362.12,267.11Z"/></svg>